<?xml version="1.0" encoding="utf-8"?>
<!-- Generator: Adobe Illustrator 21.0.0, SVG Export Plug-In . SVG Version: 6.00 Build 0)  -->
<svg version="1.0" id="Layer_1" xmlns="http://www.w3.org/2000/svg" xmlns:xlink="http://www.w3.org/1999/xlink" x="0px" y="0px"
	 width="800px" height="800px" viewBox="0 0 800 800" style="enable-background:new 0 0 800 800;" xml:space="preserve">
<style type="text/css">
	.st0{display:none;}
	.st1{display:inline;fill:url(#SVGID_1_);}
	.st2{display:inline;fill:url(#SVGID_2_);}
	.st3{display:inline;fill:url(#SVGID_3_);}
	.st4{display:inline;fill:url(#SVGID_4_);}
	.st5{display:inline;fill:#898989;}
	.st6{fill:none;}
	.st7{fill:url(#SVGID_5_);}
	.st8{fill:url(#SVGID_6_);}
	.st9{fill:url(#SVGID_7_);}
	.st10{fill:url(#SVGID_8_);}
	.st11{fill:#ABADAF;}
</style>
<g id="Layer_1_1_">
</g>
<g id="Layer_1_copy" class="st0">
	
		<linearGradient id="SVGID_1_" gradientUnits="userSpaceOnUse" x1="138" y1="395" x2="677" y2="395" gradientTransform="matrix(1 0 0 -1 0 800)">
		<stop  offset="0" style="stop-color:#C4C4C4"/>
		<stop  offset="1" style="stop-color:#ABABAB"/>
	</linearGradient>
	<path class="st1" d="M404,131c142,0,273,118.6,273,275c0,156.2-120.7,274-273,274S138,571.2,138,415c0-156.4,103.7-285,256-285
		L404,131z M406,246.6c85.8,0,155.3,71.4,155.3,159.5c0,87.9-69.5,159.4-155.3,159.4S250.7,494,250.7,406.1
		C250.7,318,320.2,246.6,406,246.6L406,246.6z"/>
	
		<linearGradient id="SVGID_2_" gradientUnits="userSpaceOnUse" x1="147.2" y1="344.55" x2="681.8" y2="344.55" gradientTransform="matrix(1 0 0 -1 0 800)">
		<stop  offset="0" style="stop-color:#E6E6E6"/>
		<stop  offset="1" style="stop-color:#B8B8B8"/>
	</linearGradient>
	<path class="st2" d="M615.5,221.9c41.3,49.5,66.3,113.8,66.3,184.1c0,156.3-123.5,283-275.8,283c-118.7,0-219.9-76.9-258.8-185
		c50.6,60.7,125.6,98.9,209.5,98.9C509,603,632.5,476.3,632.5,320C632.5,285.6,626.4,252.4,615.5,221.9L615.5,221.9z"/>
	
		<linearGradient id="SVGID_3_" gradientUnits="userSpaceOnUse" x1="520.7656" y1="655.5701" x2="135.074" y2="269.8785" gradientTransform="matrix(1 0 0 -1 0 800)">
		<stop  offset="0" style="stop-color:#F2F2F2"/>
		<stop  offset="1" style="stop-color:#CFCFCF"/>
	</linearGradient>
	<path class="st3" d="M419.5,130.5c104.6,0,160.2,69.7,222,141.5c-42.1-48.9-104.4-69.7-173-69.7c-152.3,0-275.8,126.7-275.8,282.9
		c0,49.1,12.1,95.1,33.5,135.3c-58.7-51.9-95.9-128.7-95.9-214.5c0-156.3,123.4-283,275.7-283L419.5,130.5z"/>
	
		<linearGradient id="SVGID_4_" gradientUnits="userSpaceOnUse" x1="529.9501" y1="110.8" x2="529.9501" y2="677" gradientTransform="matrix(1 0 0 -1 0 800)">
		<stop  offset="0" style="stop-color:#F2F2F2"/>
		<stop  offset="1" style="stop-color:#CFCFCF"/>
	</linearGradient>
	<path class="st4" d="M406,123c152.3,0,275.6,126.7,275.8,283.1C682,566,562,688.5,406.2,689.2c-9.5,0-19-0.6-28.1-1.6
		c115.9-34,201.3-147.5,201.3-282.4c0-133.3-83.3-245.7-197.1-281.2C390.1,123.3,398,123,406,123L406,123z"/>
	<path class="st5" d="M562.9,577.6l1-8.9l48.3-47.9l0.4-0.4c9-8.9,13.8-15.7,14.2-20.5c0.4-3.9-0.7-7.1-3.3-9.6
		c-2.5-2.6-6.1-3.8-10.6-3.8c-4.1,0-7.8,1.2-11,3.7s-5.5,5.9-6.9,10l-21.9-10.5c8.6-16.6,24.4-26.3,43.8-26.3
		c11.6,0,20.9,3.3,28.1,10c7.2,6.7,10.2,15.1,9.2,25.1c-0.6,6.1-3.1,12.4-7.3,19c-4.2,6.6-10.4,13.6-18.7,21.2l-17.3,16H654
		l-11.7,22.6h-79.4V577.6z"/>
</g>
<g id="Layer_1_copy_2">
	<g>
		<path class="st6" d="M406,246.6c-85.8,0-155.3,71.4-155.3,159.5c0,87.9,69.5,159.4,155.3,159.4S561.3,494,561.3,406.1
			C561.3,318,491.8,246.6,406,246.6z"/>
		<linearGradient id="SVGID_5_" gradientUnits="userSpaceOnUse" x1="541.2761" y1="644.3621" x2="264.9732" y2="165.7915">
			<stop  offset="5.405406e-03" style="stop-color:#D9D9D9"/>
			<stop  offset="1" style="stop-color:#B3B3B3"/>
		</linearGradient>
		<path class="st7" d="M404,131l-10-1c-152.3,0-256,128.6-256,285c0,156.2,113.7,265,266,265s273-117.8,273-274
			C677,249.6,546,131,404,131z M406,565.4c-85.8,0-155.3-71.4-155.3-159.4c0-88.1,69.5-159.5,155.3-159.5S561.3,318,561.3,406.1
			C561.3,494,491.8,565.4,406,565.4z"/>
	</g>
	<linearGradient id="SVGID_6_" gradientUnits="userSpaceOnUse" x1="378.6628" y1="358.638" x2="546.6371" y2="649.578">
		<stop  offset="0" style="stop-color:#EDEDED"/>
		<stop  offset="1" style="stop-color:#D4D4D4"/>
	</linearGradient>
	<path class="st8" d="M615.5,221.9c41.3,49.5,66.3,113.8,66.3,184.1c0,156.3-123.5,283-275.8,283c-118.7,0-219.9-76.9-258.8-185
		c50.6,60.7,125.6,98.9,209.5,98.9C509,603,632.5,476.3,632.5,320C632.5,285.6,626.4,252.4,615.5,221.9L615.5,221.9z"/>
	<linearGradient id="SVGID_7_" gradientUnits="userSpaceOnUse" x1="594.3016" y1="190.2499" x2="119.2731" y2="464.5077">
		<stop  offset="0" style="stop-color:#E8E8E8"/>
		<stop  offset="1" style="stop-color:#F5F5F5"/>
	</linearGradient>
	<path class="st9" d="M419.5,130.5c104.6,0,160.2,69.7,222,141.5c-42.1-48.9-104.4-69.7-173-69.7c-152.3,0-275.8,126.7-275.8,282.9
		c0,49.1,12.1,95.1,33.5,135.3c-58.7-51.9-95.9-128.7-95.9-214.5c0-156.3,123.4-283,275.7-283L419.5,130.5z"/>
	<linearGradient id="SVGID_8_" gradientUnits="userSpaceOnUse" x1="529.9501" y1="689.2" x2="529.9501" y2="123">
		<stop  offset="0" style="stop-color:#E8E8E8"/>
		<stop  offset="1" style="stop-color:#D9D9D9"/>
	</linearGradient>
	<path class="st10" d="M406,123c152.3,0,275.6,126.7,275.8,283.1C682,566,562,688.5,406.2,689.2c-9.5,0-19-0.6-28.1-1.6
		c115.9-34,201.3-147.5,201.3-282.4c0-133.3-83.3-245.7-197.1-281.2C390.1,123.3,398,123,406,123L406,123z"/>
	<path class="st11" d="M562.9,577.6l1-8.9l48.3-47.9l0.4-0.4c9-8.9,13.8-15.7,14.2-20.5c0.4-3.9-0.7-7.1-3.3-9.6
		c-2.5-2.6-6.1-3.8-10.6-3.8c-4.1,0-7.8,1.2-11,3.7s-5.5,5.9-6.9,10l-21.9-10.5c8.6-16.6,24.4-26.3,43.8-26.3
		c11.6,0,20.9,3.3,28.1,10c7.2,6.7,10.2,15.1,9.2,25.1c-0.6,6.1-3.1,12.4-7.3,19c-4.2,6.6-10.4,13.6-18.7,21.2l-17.3,16H654
		l-11.7,22.6h-79.4V577.6z"/>
</g>
</svg>
